<svg width="64" height="64" viewBox="0 0 64 64" fill="none" xmlns="http://www.w3.org/2000/svg">
<path d="M45.5835 11.1879C46.4035 10.3688 47.5072 9.8965 48.6659 9.86893C49.8246 9.84136 50.9495 10.2606 51.8075 11.0398C52.6655 11.8191 53.1908 12.8985 53.2746 14.0545C53.3584 15.2105 52.9942 16.3544 52.2576 17.2492L51.9661 17.5705L17.9258 51.6108C17.1058 52.43 16.0021 52.9023 14.8434 52.9298C13.6847 52.9574 12.5598 52.5381 11.7018 51.7589C10.8439 50.9797 10.3185 49.9002 10.2347 48.7443C10.1509 47.5883 10.5151 46.4443 11.2517 45.5495L11.5432 45.2283L45.5835 11.1879Z" fill="#FFF"/>
<path d="M51.5988 45.3312C52.4452 46.1776 52.9207 47.3255 52.9207 48.5225C52.9207 49.7195 52.4452 50.8674 51.5988 51.7138C50.7524 52.5602 49.6045 53.0356 48.4075 53.0356C47.2105 53.0356 46.0626 52.5602 45.2162 51.7138L11.1759 17.6734C10.3295 16.8271 9.85404 15.6791 9.85404 14.4822C9.85404 13.2852 10.3295 12.1373 11.1759 11.2909C12.0223 10.4445 13.1702 9.96902 14.3672 9.96902C15.5641 9.96902 16.7121 10.4445 17.5585 11.2909L51.5988 45.3312Z" fill="#FFF"/>
</svg>
