<svg width="100" height="100" viewBox="0 0 100 100" fill="none" xmlns="http://www.w3.org/2000/svg">
    <circle cx="50" cy="50" r="50" fill="#89C641"/>
    <circle cx="50" cy="50" r="43.75" fill="#02A64D"/>
    <path d="M68.5841 30.872C64.2087 26.468 58.4338 23.7286 52.2551 23.126C46.0764 22.5234 39.881 24.0954 34.7371 27.571C29.5932 31.0466 25.8231 36.208 24.0768 42.1653C22.3305 48.1227 22.7174 54.5027 25.1708 60.2053C25.4265 60.7354 25.5104 61.332 25.4108 61.912L23.0641 73.192C22.9737 73.6245 22.9922 74.0726 23.1178 74.4962C23.2435 74.9198 23.4725 75.3055 23.7841 75.6187C24.0396 75.8723 24.3438 76.0716 24.6783 76.2045C25.0129 76.3374 25.3709 76.4012 25.7308 76.392H26.2641L37.6775 74.0987C38.2575 74.0289 38.8458 74.1116 39.3841 74.3387C45.0868 76.7921 51.4667 77.1789 57.4241 75.4326C63.3814 73.6863 68.5428 69.9162 72.0184 64.7723C75.494 59.6284 77.0661 53.433 76.4635 47.2543C75.8609 41.0756 73.1215 35.3008 68.7175 30.9253L68.5841 30.872ZM70.7975 53.1653C70.2761 56.3493 69.0393 59.3735 67.1803 62.0104C65.3212 64.6473 62.8882 66.8282 60.0645 68.3889C57.2408 69.9497 54.0998 70.8496 50.878 71.0211C47.6562 71.1925 44.4375 70.6309 41.4641 69.3787C40.4096 68.9301 39.2767 68.6945 38.1308 68.6853C37.6302 68.6888 37.1307 68.7334 36.6375 68.8187L29.1175 70.3387L30.6375 62.8187C30.9402 61.1901 30.745 59.508 30.0775 57.992C28.8252 55.0186 28.2636 51.7999 28.435 48.5781C28.6065 45.3563 29.5064 42.2153 31.0672 39.3916C32.6279 36.5679 34.8088 34.1349 37.4457 32.2759C40.0826 30.4168 43.1068 29.18 46.2908 28.6587C49.6328 28.1102 53.0575 28.3652 56.2814 29.4028C59.5053 30.4404 62.4359 32.2306 64.8307 34.6254C67.2255 37.0202 69.0157 39.9508 70.0533 43.1747C71.0909 46.3986 71.3459 49.8233 70.7975 53.1653Z" fill="white"/>
    <path d="M40.1356 37.5603L41.5859 36.7715C42.9432 36.0331 44.6321 36.4846 45.5309 37.8261L47.3206 40.4987C48.1007 41.6622 48.0874 43.2093 47.2879 44.3226L45.0663 47.4205C45.5288 48.9317 46.3375 50.3513 47.4925 51.6795C48.5954 52.9668 49.9449 54.0204 51.4613 54.7781L54.517 53.0638C55.6745 52.4158 57.112 52.6329 58.0838 53.6021L60.3472 55.86C61.4786 56.9875 61.6612 58.8049 60.7771 60.1128L59.8292 61.5146C58.8859 62.9096 57.3009 63.6543 55.6655 63.4676C51.8074 63.0282 47.8147 60.2968 43.6873 55.2736C39.5543 50.2415 37.5634 45.6827 37.7145 41.5972C37.7782 39.8784 38.7004 38.3417 40.1385 37.5597" fill="white"/>
</svg>
